<?xml version="1.0" standalone="no"?>
<!DOCTYPE svg PUBLIC "-//W3C//DTD SVG 1.1//EN" "http://www.w3.org/Graphics/SVG/1.1/DTD/svg11.dtd" >
<svg xmlns="http://www.w3.org/2000/svg">
<metadata>
Created by FontForge 20120731 at Sun Apr  9 19:54:24 2017
 By admin
</metadata>
<defs>
<font id="iconfont" horiz-adv-x="1024" >
  <font-face 
    font-family="iconfont"
    font-weight="500"
    font-stretch="normal"
    units-per-em="1024"
    panose-1="2 0 6 3 0 0 0 0 0 0"
    ascent="896"
    descent="-128"
    x-height="792"
    bbox="-0.25 -189 3527 897"
    underline-thickness="0"
    underline-position="0"
    unicode-range="U+0078-E774"
  />
<missing-glyph 
 />
    <glyph glyph-name=".notdef" 
 />
    <glyph glyph-name=".notdef" 
 />
    <glyph glyph-name=".null" horiz-adv-x="0" 
 />
    <glyph glyph-name="nonmarkingreturn" horiz-adv-x="341" 
 />
    <glyph glyph-name="x" unicode="x" horiz-adv-x="1001" 
d="M281 543q-27 -1 -53 -1h-83q-18 0 -36.5 -6t-32.5 -18.5t-23 -32t-9 -45.5v-76h912v41q0 16 -0.5 30t-0.5 18q0 13 -5 29t-17 29.5t-31.5 22.5t-49.5 9h-133v-97h-438v97zM955 310v-52q0 -23 0.5 -52t0.5 -58t-10.5 -47.5t-26 -30t-33 -16t-31.5 -4.5q-14 -1 -29.5 -0.5
t-29.5 0.5h-32l-45 128h-439l-44 -128h-29h-34q-20 0 -45 1q-25 0 -41 9.5t-25.5 23t-13.5 29.5t-4 30v167h911zM163 247q-12 0 -21 -8.5t-9 -21.5t9 -21.5t21 -8.5q13 0 22 8.5t9 21.5t-9 21.5t-22 8.5zM316 123q-8 -26 -14 -48q-5 -19 -10.5 -37t-7.5 -25t-3 -15t1 -14.5
t9.5 -10.5t21.5 -4h37h67h81h80h64h36q23 0 34 12t2 38q-5 13 -9.5 30.5t-9.5 34.5q-5 19 -11 39h-368zM336 498v228q0 11 2.5 23t10 21.5t20.5 15.5t34 6h188q31 0 51.5 -14.5t20.5 -52.5v-227h-327z" />
    <glyph glyph-name="guanbi" unicode="&#xe600;" 
d="M578 300l410 409q14 14 14 33.5t-14 33t-33.5 13.5t-32.5 -13l-410 -410l-410 410q-13 13 -32.5 13t-33.5 -13.5t-14 -33t14 -33.5l410 -409l-409 -409q-14 -13 -14 -32.5t14 -33.5t33.5 -14t33.5 14l408 409l408 -409q14 -14 33.5 -14t33 14t13.5 33.5t-13 32.5z" />
    <glyph glyph-name="artboard21" unicode="&#xe774;" 
d="M915 525l-67 -23q20 -57 20 -118q0 -97 -48 -178.5t-129.5 -129.5t-178.5 -48t-178.5 48t-129.5 129.5t-48 178.5t48 178.5t129.5 129.5t178.5 48t180 -49l36 61q-100 59 -216 59t-214 -57.5t-155.5 -155.5t-57.5 -214t57.5 -214t155.5 -155.5t214 -57.5t214 57.5
t155.5 155.5t57.5 214q0 73 -24 141v0zM347 421l141 -220q10 -15 28.5 -16t29.5 14l329 441q8 12 6 26.5t-13.5 23.5t-26 7t-22.5 -14l-329 -441l57 -2l-141 220q-8 13 -22.5 16t-26.5 -5t-15 -22.5t5 -27.5v0z" />
    <glyph glyph-name="icon_y" unicode="&#xe601;" 
d="M265 -73l396 410q20 19 20 44.5t-20 45.5l-396 414q-10 9 -10 23t9.5 23.5t21.5 9.5t21 -10l440 -456q19 -19 19 -44.5t-19 -45.5l-440 -456q-9 -10 -21 -10t-21.5 9.5t-9.5 21.5t10 21z" />
    <glyph glyph-name="icon_z" unicode="&#xe602;" 
d="M759 -73l-396 410q-20 19 -20 44.5t20 45.5l396 409q10 10 10 24t-9.5 23.5t-21.5 9.5t-21 -10l-444 -452q-19 -19 -19 -44.5t19 -45.5l440 -456q9 -10 21 -10t21 10q13 6 13.5 19.5t-9.5 22.5z" />
    <glyph glyph-name="icon_dz_s" unicode="&#xe603;" 
d="M559 896q36 -9 68 -24t59 -35.5t42 -49.5t13 -62q-2 -42 -19.5 -79t-37.5 -58t-37.5 -45.5t-19.5 -44.5h285q35 0 58 -9t34.5 -22t15.5 -34.5t2 -41.5t-8 -47q-12 -65 -38 -181t-36 -166q-13 -68 -46 -96.5t-102 -28.5h-722q-47 0 -57.5 10.5t-10.5 57.5v478
q0 36 16 46.5t58 10.5q68 0 136 17q93 17 156.5 86.5t76.5 163.5q0 67 19 100t72 54h23zM172 -14v398h-57v-398h57zM172 -14z" />
    <glyph glyph-name="icon_fx" unicode="&#xe604;" 
d="M768 139q-36 0 -61 -16l-273 183q6 11 6 39q0 22 -11 56l289 261q33 -11 50 -11q50 4 82.5 43.5t28.5 89.5t-43.5 83t-89.5 29q-47 -5 -79.5 -39.5t-32.5 -83.5q0 -22 6 -33l-295 -261q-44 11 -67 11q-58 8 -104.5 -31.5t-50.5 -102.5q-5 -59 33.5 -105t99.5 -51h28
q54 0 83 23l273 -184v-22q-4 -54 32 -97t90 -48q55 -4 98 32.5t47 90.5t-32 97t-91 47h-16z" />
    <glyph glyph-name="icon_hdb" unicode="&#xe605;" 
d="M903 172l-354 340q-17 16 -39.5 16t-41.5 -16l-355 -340q-8 -8 -20 -8t-20 8t-8 18t8 18l399 381q16 16 38.5 16t41.5 -16l392 -377q8 -8 8 -18t-8 -18q-8 -11 -20.5 -12t-20.5 8z" />
    <glyph glyph-name="icon_kj" unicode="&#xe606;" 
d="M677 534q-8 19 -24 56q-30 73 -45 108.5t-35.5 80t-34 62.5t-22.5 18t-22.5 -16.5t-32 -54t-33 -69t-41 -91.5t-39.5 -90q-44 -4 -108 -8t-98 -6t-70.5 -6t-53 -10t-18.5 -14q-1 -4 2 -10t11 -15t17 -18t25 -23t30.5 -26.5t36.5 -31t40.5 -33.5t46 -37.5t47.5 -39.5
q-5 -24 -12 -57.5t-11.5 -56.5t-10.5 -52t-10 -48.5t-8.5 -42t-6.5 -37t-3.5 -27.5t-1.5 -20.5t2 -9.5q5 -5 25 2t64 30.5t78 42.5t106 61q32 18 49 28q37 -21 91 -52.5t84.5 -49.5t63.5 -35.5t51 -23t25 -0.5q3 3 3.5 11.5t-1.5 25t-4.5 35t-7.5 47t-10 53.5t-12 62t-12 66
q-135 -25 -238 -25q-127 -6 -267 18q22 18 73 47q99 66 135 92q88 66 125 88q-6 0 -22.5 1.5t-21.5 1.5q-263 19 -351 22q166 26 285 26q129 5 256 -22q-44 -39 -99 -66q-11 -8 -58 -38t-84 -57q-30 -18 -81 -62q55 -8 165 -15q8 0 75.5 -2t103.5 -2q-2 8 -4 20.5t-3 20.5
q24 21 58.5 50.5t55.5 47.5t46 40.5t39.5 36.5t27.5 28.5t17 23.5t1 14q-2 6 -20.5 10.5t-55 7.5t-72.5 5t-95 4.5t-101 5.5z" />
    <glyph glyph-name="icon_dz_n" unicode="&#xe607;" 
d="M559 896q36 -9 68 -24t59 -35.5t42 -49.5t13 -62q-2 -42 -19.5 -79t-37.5 -58t-37.5 -45.5t-19.5 -44.5h285q35 0 58 -9t34.5 -22t15.5 -34.5t2 -41.5t-8 -47q-12 -65 -38 -181t-36 -166q-13 -68 -46 -96.5t-102 -28.5h-722q-47 0 -57.5 10.5t-10.5 57.5v478
q0 36 16 46.5t58 10.5q68 0 136 17q93 17 156.5 86.5t76.5 163.5q0 67 19 100t72 54h23zM286 -14h506q13 0 21 4t13 14t7 17t5 22q8 36 23 102t26.5 120t18.5 102q2 10 -2 15t-14.5 6t-22 0t-32 -2.5t-37.5 -1.5h-171q-79 0 -92 47t36 124q56 73 56 170q0 25 -18 41t-44 16
q-5 0 -9 -1t-10.5 -5t-9.5 -5q-17 -17 -17 -51q-4 -98 -59.5 -178t-144.5 -118q-18 -6 -29 -29v-409zM172 -14v398h-57v-398h57zM172 -14z" />
    <glyph glyph-name="icon_hf" unicode="&#xe608;" 
d="M826 896h-634q-81 0 -136.5 -58t-55.5 -140v-404q0 -89 56.5 -159.5t135.5 -70.5l96 19l-19 -153q0 -35 25 -52q7 0 16.5 -3t15.5 -3q8 0 16 3t10 3l288 186h192q80 0 136 68t56 156v403q5 82 -52.5 143.5t-139.5 61.5h-6zM896 256q0 -42 -12 -53t-52 -11l-198 -6
q-8 0 -16 -3.5t-10 -3.5l-224 -160l13 103q0 19 -13 44q-21 22 -64 32h-128q-40 0 -52 11.5t-12 52.5v442q0 42 12 53t52 11h640q40 0 52 -11t12 -53v-448zM256 512zM192 512q5 -26 24 -44t46 -14q23 0 38 16t20 42q0 24 -17 45t-41 25q-27 0 -46 -16t-24 -41v-13zM768 512z
M704 512q0 -29 17.5 -46.5t46.5 -17.5t46.5 17.5t17.5 46.5t-17.5 46.5t-46.5 17.5q-25 0 -44.5 -18t-19.5 -46zM512 512zM448 512q5 -26 24 -44t46 -14q24 0 41 17t17 41q5 24 -12 45t-46 25q-24 0 -44.5 -16.5t-25.5 -40.5v-13v0z" />
    <glyph glyph-name="icon_sc_s" unicode="&#xe609;" 
d="M1014 513q-8 25 -27.5 41.5t-45.5 20.5l-244 40l-108 227q-17 35 -51.5 48t-72.5 -3q-29 -28 -40 -51l-102 -227l-244 -34q-25 -4 -45 -20.5t-28 -41.5q-19 -55 22 -96l176 -182l-40 -255q-4 -25 7.5 -51.5t32.5 -38.5q21 -17 48.5 -18t47.5 12l210 119l210 -119
q20 -13 47.5 -12t48.5 18q22 17 33 41.5t7 48.5l-40 255l176 182q41 41 22 96zM538 496q-82 0 -141 -51q-57 -66 -57 -147q0 -13 8 -21t20.5 -8t20.5 8t8 21q0 48 39 107q43 34 102 34q13 0 21 8t8 21t-8 20.5t-21 7.5z" />
    <glyph glyph-name="icon_sc_n" unicode="&#xe60a;" 
d="M1014 513q-8 25 -27.5 41.5t-45.5 20.5l-244 40l-108 227q-17 35 -51.5 48t-72.5 -3q-29 -28 -40 -51l-102 -227l-244 -34q-25 -4 -45 -20.5t-28 -41.5q-19 -55 22 -96l176 -182l-40 -255q-4 -25 7.5 -51.5t32.5 -38.5q21 -17 48.5 -18t47.5 12l210 119l210 -119
q20 -13 47.5 -12t48.5 18q22 17 33 41.5t7 48.5l-40 255l176 182q41 41 22 96zM895 439l-164 -170l40 -238q0 -22 -17 -39q-18 -18 -46 0l-198 107l-198 -107q-18 -9 -46 0q-17 17 -17 39l40 238l-164 170q-12 12 -12 46q5 8 15.5 15t18.5 7l227 34l96 210q9 17 24.5 21.5
t32.5 -4.5q17 -8 17 -17l96 -210l227 -34q20 0 30 -13t10 -32q0 -11 -12 -23zM538 496q-82 0 -141 -51q-57 -66 -57 -147q0 -13 8 -21t20.5 -8t20.5 8t8 21q0 48 39 107q43 34 102 34q13 0 21 8t8 21t-8 20.5t-21 7.5z" />
    <glyph glyph-name="icon_sousuo" unicode="&#xe60b;" 
d="M438 21q-120 0 -220.5 58t-158.5 158.5t-58 221.5q0 117 57.5 217.5t158.5 160t221 59.5t221 -58t159 -158.5t58 -221t-58 -221t-159 -158.5t-221 -58zM802 459q0 97 -49 181t-133 133t-182 49t-181.5 -49t-132.5 -133t-49 -181q0 -99 47.5 -182.5t131.5 -132.5t184 -49
q98 -3 182 45t133 133t49 186zM841 95q12 0 23 -11l148 -148q17 -26 0 -51q-9 -13 -23.5 -13t-27.5 13l-148 147q-17 18 -5.5 40.5t33.5 22.5z" />
    <glyph glyph-name="icon_sj" unicode="&#xe60c;" 
d="M717 401h-188v188q0 19 -16 35t-35 16t-35 -16t-16 -35v-256q0 -13 10.5 -23.5t23.5 -10.5h256q19 0 35 16t16 35t-16 35t-35 16zM512 896q-138 0 -256 -69t-187 -187t-69 -256t69 -256t187 -187t256 -69t256 69t187 187t69 256t-69 256t-187 187t-256 69zM512 -43
q-118 0 -216 56.5t-154.5 154.5t-56.5 216t56.5 216t154.5 154.5t216 56.5t216 -56.5t154.5 -154.5t56.5 -216t-56.5 -216t-154.5 -154.5t-216 -56.5z" />
    <glyph glyph-name="icon_wb" unicode="&#xe60d;" 
d="M380 344q-62 -8 -101 -50.5t-30.5 -92.5t56.5 -80t108 -22q61 8 100.5 50.5t31.5 91.5q-8 50 -56.5 80.5t-108.5 22.5zM355 154q-19 0 -31 14t-9 33q2 20 15 31.5t32 8.5q16 0 26.5 -10.5t13.5 -25.5q0 -20 -13 -34.5t-34 -16.5zM432 230q-20 -6 -26 11q0 9 5 15.5
t13 6.5q20 7 26 -11q0 -16 -18 -22zM808 457q2 0 6.5 -2t8.5 -2q22 0 33 22t11 48q0 49 -36 85t-85 36q-26 0 -47 -11q-14 -6 -19 -18.5t0.5 -26t17.5 -18.5t26 1q7 3 22 3q22 0 36.5 -16t14.5 -39q0 -14 -3 -22q-8 -11 -4 -22.5t18 -17.5zM728 406l7 18q16 34 12 59
t-25.5 40t-50 21t-61 1.5t-58.5 -18.5q-40 -20 -50 -13t-2 26l8 20q3 30 -3.5 51t-18 31t-28.5 13.5t-31.5 2.5t-30.5 -5t-21.5 -6t-8.5 -3v0q-329 -185 -329 -406q0 -42 31 -85t83 -76.5t126.5 -55t154.5 -21.5q105 0 194 29t143 73t79.5 97t14.5 101q-8 37 -47.5 67
t-87.5 39zM391 59q-67 0 -119 16t-80.5 42.5t-42.5 55t-14 57.5q0 55 43.5 101t110.5 71.5t139 25.5q104 0 177 -40t90 -99q16 -57 -21.5 -111t-114 -86.5t-168.5 -32.5zM742 768q-18 0 -62 -7q-13 -3 -20.5 -15t-4.5 -26q2 -13 14 -20.5t26 -4.5q29 7 44 7
q74 0 126.5 -52.5t52.5 -126.5q0 -29 -11 -62q-5 -14 1.5 -26t20.5 -18q7 0 11 -4q22 0 33 22q35 96 -7.5 189.5t-138.5 128.5q-39 15 -85 15z" />
    <glyph glyph-name="icon_wx" unicode="&#xe60e;" 
d="M1024 263q0 98 -68 171.5t-173 95.5l-4 4h-4q-3 0 -3 4h-8q-3 0 -7 3h-7q-8 0 -20.5 2t-20.5 2q-131 0 -220.5 -79.5t-89.5 -194.5q0 -50 22 -99v-7l3 -4h4q0 -3 0.5 -3.5t3.5 -0.5v-3q0 -4 3 -4l4 -4v-3l4 -4l3 -4q0 -3 4 -3v-4q0 -4 3 -7q30 -47 77 -81t103 -51
q7 -4 18 -4q11 -3 24 -5t28.5 -3t24.5 -3q51 0 106 19l117 -59l-29 103q102 109 102 226zM614 304q-15 0 -25.5 11t-10.5 25q0 17 10 28.5t26 11.5q17 0 29 -11.5t12 -28.5q0 -15 -11 -25.5t-30 -10.5q6 0 0 0zM816 304q-16 0 -26.5 11t-10.5 25q0 17 10 28.5t27 11.5
q16 0 28 -11.5t12 -28.5q0 -15 -11 -25.5t-29 -10.5q5 0 0 0zM461 490q108 91 248 91h22q-30 106 -130 174t-228 68q-101 0 -187 -44t-136 -119.5t-50 -165.5q0 -79 38 -147.5t105 -112.5l-33 -117l139 66q67 -18 124 -18h4q-20 57 -15 98q-3 64 24 123t75 104zM494 658
q21 0 36 -15.5t15 -35.5q0 -22 -14 -36.5t-34 -14.5h-3q-22 0 -36.5 15.5t-14.5 35.5q0 21 15.5 36t35.5 15zM249 552q-20 0 -34.5 14.5t-17.5 36.5v4q0 22 15 36.5t37 14.5q21 0 36 -15.5t15 -35.5q0 -22 -15 -38.5t-36 -16.5z" />
    <glyph glyph-name="icon_ydl" unicode="&#xe60f;" horiz-adv-x="1433" 
d="M716.5 -128q-100.5 0 -213.5 45.5t-210 118t-176 165t-117 183.5q38 91 117 183.5t176 165t210 118t213.5 45.5t214 -45.5t210.5 -118t176 -165t117 -183.5q-38 -91 -117 -183.5t-176 -165t-210.5 -118t-214 -45.5zM717 794q-74 0 -170.5 -40t-183 -100t-158.5 -133
t-103 -137q31 -64 103 -137t158.5 -133t183 -100t170.5 -40t170.5 40t183 100t158.5 133t102 137q-30 64 -102 137t-158.5 133t-183 100t-170.5 40zM717 179q-85 0 -145 60.5t-60 144.5t60 144.5t144.5 60.5t145 -60.5t60.5 -144.5q-8 -84 -64.5 -140.5t-140.5 -64.5z
M717 486q-46 0 -74.5 -28t-28.5 -74t28.5 -74t74.5 -28t74 28t28 74t-28 74t-74 28z" />
    <glyph glyph-name="logo" unicode="&#xe610;" 
d="M602 538l10 29h-190l-10 -29h72v-10q-1 -15 -1 -24h-57l-10 -28h19q-5 -24 -6 -133h10q0 13 1 19h119q13 4 24.5 -11t23.5 -49l5 1q-9 41 -16 59v119l6 23h-57v34h57v0zM513 538h5q8 1 12 -7.5t3 -26.5h-36q4 34 16 34zM561 476q12 1 17.5 -10.5t5.5 -35.5v-44
q-7 6 -19 5h-123q7 94 23 85h17v-31q-2 -26 -2 -42h11q0 46 3 73h39v-35q-1 -31 31 -30l8 32q-27 0 -27 10v23h16zM852 386h-43v11h25v0h12l4 47h-35v13h27l10 23h-92v-123h9v6h73zM836 416l-1 2q1 -1 1 -2zM788 457h8q10 1 11 -13h-29q2 12 10 13zM775 427h50q6 -1 8 -12
h-61q0 7 3 12zM770 386l1 11h23q7 1 7 -11h-31zM908 440l-7 27q-12 1 -22 -15q-3 22 -7 36h8l3 11q8 -1 18 -23l6 3q-3 28 -10 40t-19 8l-5 -15h-6q-4 15 -7 18h38l10 27h-45q0 1 0.5 4t0.5 4q0 19 -22 19q-26 -1 -59 -27h-12l5 29h-18l-6 -29h-39l-11 -27h58v-14h11v14h85
l-16 -11q4 -1 5 -5q1 -1 1 -2h-107l-10 -23q7 -5 9 -21h-18l3 41h-15l-4 -66h34v-17h-28q-16 -60 -18 -72l6 -3q7 29 15 40.5t25 11.5v-55h12v140h105q8 -28 13 -57q-16 -52 -27 -96l6 -1l7 17q16 42 21 53q9 -43 20 -102l7 4q-10 69 -17 114q10 20 23 20zM840 557h-45
q22 13 32 13q13 0 13 -11v-2zM296 538q-1 -17 -3 -39q-8 25 -21 25q-18 2 -18 -50v-5q1 -49 17 -47q8 0 13.5 6.5t8.5 21.5q6 -26 10 -57l8 3q-6 53 -12 82q1 6 2 18q3 30 5 44l4 26h-48l-9 -28h43v0zM272 451q-12 -1 -11 22t11 23q10 1 15 -24q-3 -20 -15 -21zM286 391
h-116v37h12l8 24h-20v25h15l8 27h-27v26h16l9 27h-25l3 29h-15l-4 -29h-14l-9 -27h27v-26h-25l-9 -27h24q8 1 12 -5.5t4 -19.5v-55q-8 7 -19 26q4 14 10 19l-13 20q-13 4 -22 -127l7 -1q2 12 7 34q3 21 6 29q19 -36 43 -35h99q25 7 38 -60l7 2q-13 99 -37 87zM198 539
q-3 -25 -1 -94h-5l-8 -25h26q13 0 24 15v-37h11v144l8 24h-55l-10 -27h10zM216 539h9q8 2 9 -17h-27q2 17 9 17zM205 500h29v-16h-30q0 7 1 16zM204 462h30v-8q-10 -9 -24 -9h-8q2 9 2 17zM171 154v34q-2 -4 -7 -6.5t-11 -2.5q-12 0 -21 10t-9 27q0 11 3 19q4 9 11 13t15 4
q13 0 21 -11v10h10v-97h-12v0zM135 216q0 -13 5.5 -20t13.5 -7t13.5 6.5t5.5 19.5q0 14 -6 21t-13.5 7t-13 -6.5t-5.5 -20.5zM231 181v9l44 51h-13h-29v10h57v-8l-37 -44l-8 -9q9 1 15 1h32v-10h-61v0zM385 189q-7 -5 -13 -7.5t-13 -2.5q-11 0 -17.5 5.5t-6.5 14.5
q0 5 2.5 9.5t6.5 7t8 3.5q3 1 11 2q14 2 21 4v2v1q0 7 -3 10q-5 4 -14 4q-8 0 -12 -3t-6 -10l-12 1q2 8 6 12q3 5 10 7.5t16 2.5t14.5 -2t8.5 -5q2 -3 3 -8q1 -4 1 -11v-16q0 -17 0.5 -21t3.5 -8h-13q-2 3 -2 8zM384 216q-6 -3 -20 -5q-6 -1 -10 -2q-3 -1 -4.5 -3.5
t-1.5 -5.5q0 -5 3 -8q4 -4 11 -4t12 3t8 9q2 4 2 11v5v0zM449 181v69h11v-9q8 11 22 11q6 0 11.5 -2t8.5 -6q2 -3 3 -9q1 -3 1 -11v-43h-12v42q0 7 -1 11q-2 3 -5 6q-4 2 -8 2q-8 0 -13.5 -5t-5.5 -18v-38h-12v0zM557 175l12 -2q0 -5 4 -7q4 -4 12 -4t12.5 3.5t5.5 9.5
q1 3 1 15q-7 -9 -19 -9q-15 0 -22.5 10.5t-7.5 24.5q0 10 3 19q4 8 11 12.5t16 4.5q12 0 20 -10v9h11v-61q0 -16 -3 -23q-3 -6 -10.5 -10t-17.5 -4q-13 0 -20.5 5.5t-7.5 16.5zM567 217q0 -14 5.5 -20t13.5 -6t13.5 6t5.5 20q0 12 -5.5 19t-13.5 7t-14 -7q-5 -7 -5 -19z
M673 181v13h13v-13h-13zM787 206l12 -1q-2 -12 -10 -19t-19 -7q-14 0 -23 9.5t-9 26.5q0 11 4 19.5t11.5 13t16.5 4.5q11 0 18.5 -6t9.5 -16l-12 -2q-2 7 -6 11q-4 3 -10 3q-9 0 -14.5 -6.5t-5.5 -19.5q0 -14 5.5 -20.5t14.5 -6.5q7 0 11 4q5 5 6 13zM890 206l11 -1
q-2 -12 -9.5 -19t-19.5 -7q-14 0 -22.5 9.5t-8.5 26.5q0 11 3.5 19.5t11 13t16.5 4.5q12 0 19 -6t9 -16l-11 -2q-2 7 -6 11q-5 3 -10 3q-9 0 -14.5 -6.5t-5.5 -19.5q0 -14 5 -20.5t14 -6.5q7 0 12 4q4 5 6 13z" />
    <glyph glyph-name="icon_bdsj" unicode="&#xe611;" 
d="M799 896h-574q-35 0 -59.5 -24.5t-24.5 -58.5v-858q0 -34 24.5 -58.5t59.5 -24.5h574q35 0 59.5 24.5t24.5 58.5v858q0 34 -24.5 58.5t-59.5 24.5zM234 803h556v-556h-556v556zM790 -31h-556v186h556v-186zM554 108h-88q-20 0 -34 -11.5t-17 -29.5q0 -21 11.5 -34.5
t29.5 -16.5h93q20 0 33.5 11.5t17.5 29.5q0 20 -12 34t-30 17h-4z" />
    <glyph glyph-name="icon_jbzl" unicode="&#xe612;" 
d="M93 803h838q38 -4 64 -29.5t29 -63.5v-652q-3 -38 -29 -63.5t-64 -29.5h-838q-38 4 -64 29.5t-29 63.5v652q3 38 29 63.5t64 29.5zM186 710q-38 -4 -63.5 -29.5t-29.5 -63.5v-466q4 -38 29.5 -63.5t63.5 -29.5h652q38 4 63.5 29.5t29.5 63.5v466q-4 38 -29.5 63.5
t-63.5 29.5h-652zM372 337q77 0 132 -33.5t55 -82.5v-70h-373v70q0 49 54.5 82.5t131.5 33.5zM372.5 431q-38.5 0 -66 27t-27.5 65.5t27.5 66t66 27.5t65.5 -27.5t27 -66t-27 -65.5t-65.5 -27zM698 617h93q21 0 34 -13t13 -34t-13 -33.5t-34 -12.5h-93q-21 0 -33.5 12.5
t-12.5 33.5t12.5 34t33.5 13zM698 431h93q21 0 34 -13t13 -34t-13 -34t-34 -13h-93q-21 0 -33.5 13t-12.5 34t12.5 34t33.5 13zM698 244h93q21 0 34 -12.5t13 -33.5t-13 -34t-34 -13h-93q-21 0 -33.5 13t-12.5 34t12.5 33.5t33.5 12.5z" />
    <glyph glyph-name="icon_ml_s" unicode="&#xe613;" 
d="M512 -43q-118 0 -216 56.5t-154.5 154.5t-56.5 216t56.5 216t154.5 154.5t216 56.5t216 -56.5t154.5 -154.5t56.5 -216t-56.5 -216t-154.5 -154.5t-216 -56.5zM529 623q-19 19 -42.5 19t-42.5 -19t-19 -47t19 -47l153 -145l-153 -145q-19 -19 -19 -47t19 -47t42.5 -19
t42.5 19l239 248z" />
    <glyph glyph-name="icon_tc" unicode="&#xe614;" 
d="M787 710q-14 15 -35 15t-35 -15q-10 -13 -9 -34.5t15 -35.5q79 -56 116.5 -143t27.5 -180.5t-67 -169.5q-56 -78 -143 -116t-180.5 -27.5t-169.5 67t-113.5 143t-28.5 180.5t65 169q27 44 71 77q14 14 15 32t-9 32q-15 15 -35 17.5t-35 -11.5q-95 -75 -139.5 -186
t-28.5 -229t91 -212q76 -94 186.5 -139t228.5 -29t212 91q95 76 139.5 187t28.5 228.5t-91 212.5q-29 38 -77 76zM576 410q-5 -29 -25.5 -46t-44.5 -12q-48 10 -58 58v396q5 25 26 40.5t44 11.5q48 0 58 -52v-396z" />
    <glyph glyph-name="icon_sz" unicode="&#xe615;" 
d="M960 320h-38q-21 -105 -77 -179l32 -32q19 -19 19 -45t-19 -45t-45 -19t-45 19l-32 32q-74 -56 -179 -77v-38q0 -29 -17.5 -46.5t-46.5 -17.5t-46.5 17.5t-17.5 46.5v38q-105 21 -179 77l-32 -32q-19 -19 -45 -19t-45 19t-19 45t19 45l32 32q-66 76 -77 179h-38
q-29 0 -46.5 17.5t-17.5 46.5t17.5 46.5t46.5 17.5h38q21 105 77 179l-32 32q-19 19 -19 45t19 45t45 19t45 -19l32 -32q76 66 179 77v38q0 29 17.5 46.5t46.5 17.5t46.5 -17.5t17.5 -46.5v-38q105 -21 179 -77l32 32q19 19 45 19t45 -19t19 -45t-19 -45l-32 -32
q66 -76 77 -179h38q29 0 46.5 -17.5t17.5 -46.5t-17.5 -46.5t-46.5 -17.5zM512 704q-134 0 -227 -93t-93 -227t93 -227t227 -93t227 93t93 227t-93 227t-227 93zM512 192q-82 0 -137 55t-55 137t55 137t137 55t137 -55t55 -137t-55 -137t-137 -55zM512 480q-38 0 -67 -29
t-29 -67t29 -67t67 -29t67 29t29 67t-29 67t-67 29z" />
    <glyph glyph-name="icon_xgma" unicode="&#xe616;" 
d="M838 477h-47v93q0 115 -82 197t-197 82t-197 -82t-82 -197v-93h-47q-38 0 -65.5 -27.5t-27.5 -65.5v-382q4 -38 31 -62.5t62 -20.5h652q38 -4 65.5 22t27.5 61v382q0 38 -27.5 65.5t-65.5 27.5zM326 570q0 186 186 186t186 -186v-93h-372v93zM838 58q3 -16 -7.5 -29.5
t-25.5 -16.5h-572q-19 0 -33 10t-14 27v288q0 18 12.5 32.5t29.5 14.5h563q18 3 30.5 -6t16.5 -27v-293zM512 291q21 0 34 -13t13 -34v-93q0 -21 -13 -33.5t-34 -12.5t-34 12.5t-13 33.5v93q0 21 13 34t34 13z" />
    <glyph glyph-name="icon_ml_n" unicode="&#xe617;" 
d="M512 -85q-94 0 -181 37.5t-150 100.5t-100.5 150t-37.5 181t37.5 181t100.5 150t150 100.5t181 37.5t181 -37.5t150 -100.5t100.5 -150t37.5 -181t-37.5 -181t-100.5 -150t-150 -100.5t-181 -37.5zM512 768q-160 0 -272 -112t-112 -272t112 -272t272 -112t272 112
t112 272t-112 272t-272 112z" />
    <glyph glyph-name="icon_jg" unicode="&#xe618;" 
d="M512 896q-138 0 -256 -69t-187 -187t-69 -256t69 -256t187 -187t256 -69t256 69t187 187t69 256t-69 256t-187 187t-256 69zM512 43q-38 0 -61.5 23.5t-23.5 61.5t23.5 61.5t61.5 23.5t61.5 -23.5t23.5 -61.5t-23.5 -61.5t-61.5 -23.5zM597 384q0 -38 -23.5 -61.5
t-61.5 -23.5t-61.5 23.5t-23.5 61.5v256q0 38 23.5 61.5t61.5 23.5t61.5 -23.5t23.5 -61.5v-256z" />
    <glyph glyph-name="icon_jz_s" unicode="&#xe619;" 
d="M913 896h-802q-45 0 -78 -33t-33 -78v-794q0 -50 32.5 -84.5t78.5 -34.5h794q44 0 77 33t33 78v802q7 44 -24.5 77.5t-77.5 33.5zM887 563l-443 -444q-17 -17 -43 -17t-43 17l-230 231q-13 19 -11.5 41.5t20.5 35.5q12 12 33.5 12t34.5 -12l188 -188l409 410
q19 19 42.5 19t42.5 -19q20 -13 20 -40t-20 -46z" />
    <glyph glyph-name="icon_jz_n" unicode="&#xe61a;" 
d="M853 896h-682q-71 0 -121 -50t-50 -121v-682q0 -71 50 -121t121 -50h682q71 0 121 50t50 121v682q0 71 -50 121t-121 50zM939 43q0 -39 -23.5 -62.5t-62.5 -23.5h-682q-39 0 -62.5 23.5t-23.5 62.5v682q0 39 23.5 62.5t62.5 23.5h682q39 0 62.5 -23.5t23.5 -62.5v-682z
" />
    <glyph glyph-name="icon_jz_n1" unicode="&#xe61b;" 
d="M853 -128h-682q-71 0 -121 50t-50 121v682q0 71 50 121t121 50h682q71 0 121 -50t50 -121v-682q0 -71 -50 -121t-121 -50zM939 725q0 39 -23.5 62.5t-62.5 23.5h-682q-39 0 -62.5 -23.5t-23.5 -62.5v-682q0 -39 23.5 -62.5t62.5 -23.5h682q39 0 62.5 23.5t23.5 62.5v682z
" />
    <glyph glyph-name="icon_jg1" unicode="&#xe61c;" 
d="M512 896q-138 0 -256 -69t-187 -187t-69 -256t69 -256t187 -187t256 -69t256 69t187 187t69 256t-69 256t-187 187t-256 69zM512 43q-38 0 -61.5 23.5t-23.5 61.5t23.5 61.5t61.5 23.5t61.5 -23.5t23.5 -61.5t-23.5 -61.5t-61.5 -23.5zM597 384q0 -38 -23.5 -61.5
t-61.5 -23.5t-61.5 23.5t-23.5 61.5v256q0 38 23.5 61.5t61.5 23.5t61.5 -23.5t23.5 -61.5v-256z" />
    <glyph glyph-name="icon_jz_s1" unicode="&#xe61d;" 
d="M913 896h-802q-45 0 -78 -33t-33 -78v-794q0 -50 32.5 -84.5t78.5 -34.5h794q44 0 77 33t33 78v802q7 44 -24.5 77.5t-77.5 33.5zM887 563l-443 -444q-17 -17 -43 -17t-43 17l-230 231q-13 19 -11.5 41.5t20.5 35.5q12 12 33.5 12t34.5 -12l188 -188l409 410
q19 19 42.5 19t42.5 -19q20 -13 20 -40t-20 -46z" />
    <glyph glyph-name="icon_qq" unicode="&#xe61e;" 
d="M878 238q-18 105 -88 175q8 28 1 56t-27 50v4q6 104 -63.5 181t-174 82.5t-181 -64t-82.5 -173.5v-30q-19 -22 -26 -50t1 -56q-77 -77 -88 -175q-4 -25 11 -62q7 -6 18 -4t26 18t25 40q13 -47 59 -106q-30 -2 -47.5 -25.5t-14.5 -54.5q0 -7 7 -22q16 -22 43.5 -32.5
t55.5 -7.5q117 0 161 44q8 5 17.5 5t15.5 -5q44 -44 161 -44q62 -6 102 40q14 27 4.5 54t-37.5 41q-15 7 -22 7q33 43 59 106q12 -24 26.5 -40t25 -18.5t17.5 4.5q15 24 15 62z" />
    <glyph glyph-name="icon_xsj" unicode="&#xe61f;" 
d="M512 -43l-512 854h1024z" />
    <glyph glyph-name="icon_xb_n" unicode="&#xe620;" 
d="M512 896q-213 0 -362.5 -149.5t-149.5 -362.5t149.5 -362.5t362.5 -149.5t362.5 149.5t149.5 362.5t-149.5 362.5t-362.5 149.5zM512 -71q-92 0 -176.5 36t-145.5 97t-97 145.5t-36 176.5t36 176.5t97 145.5t145.5 97t176.5 36t176.5 -36t145.5 -97t97 -145.5t36 -176.5
t-36 -176.5t-97 -145.5t-145.5 -97t-176.5 -36z" />
    <glyph glyph-name="icon_xb_s" unicode="&#xe621;" 
d="M512 384zM171 384q0 -93 45.5 -171.5t124 -124t171.5 -45.5t171.5 45.5t124 124t45.5 171.5t-45.5 171.5t-124 124t-171.5 45.5t-171.5 -45.5t-124 -124t-45.5 -171.5zM512 896q-213 0 -362.5 -149.5t-149.5 -362.5t149.5 -362.5t362.5 -149.5t362.5 149.5t149.5 362.5
t-149.5 362.5t-362.5 149.5zM512 -71q-92 0 -176.5 36t-145.5 97t-97 145.5t-36 176.5t36 176.5t97 145.5t145.5 97t176.5 36t176.5 -36t145.5 -97t97 -145.5t36 -176.5t-36 -176.5t-97 -145.5t-145.5 -97t-176.5 -36z" />
    <glyph glyph-name="icon_zhifubao" unicode="&#xe622;" horiz-adv-x="3136" 
d="M1976 704h-93v179h-160v-179h-303v-76h303v-563h160v563h93v76zM2893 807h-352v76h-159v-76h-192v28h-150v-262h342v-121h-250v-77h250v-278h159v278h240v77h-240v121h262q42 39 68 99q25 67 22 135zM2187 637v106h543v-106h-543zM1465 883h-167q-1 -47 -25.5 -96
t-59 -85.5t-69 -65.5t-58.5 -44l-24 -16l19 -44q91 27 144 57v-524h156v636q36 43 56.5 88.5t23.5 69.5zM1557 596l138 -141l-138 -141l-137 141zM2717 350l96 -96l-96 -96l-96 96zM1075 685v74h-342v124h-147v-124h-352v-74h352v-131h-250v-73h489q-14 -66 -78 -170.5
t-164 -200.5q-62 -57 -133 -84.5t-132 -25.5t-112 27.5t-77 69.5q-15 24 -16.5 49t7.5 45.5t23.5 39.5t31 33t32 25t24.5 16.5t10 5.5q-4 0 -9.5 -1t-22 -5.5t-32 -10.5t-36 -16.5t-36 -22.5t-29.5 -30.5t-20 -40t-3.5 -49.5t15.5 -60q20 -47 54 -80t73.5 -50t82.5 -26
t82 -9t70.5 2.5t50.5 5.5t18 3q89 36 164.5 91t125 111t89.5 121.5t61 115t36 100.5t18.5 68t4.5 26v0h-265v131h342zM3133 203l-240 -278q-15 -2 -42.5 -4.5t-112 -10t-169.5 -13.5t-204 -12.5t-227 -10t-226.5 -2.5t-213.5 8q-334 25 -611 111.5t-562 236.5
q-72 38 -136 57.5t-109.5 21.5t-83.5 -7t-62 -23.5t-41.5 -32t-25 -29.5t-9.5 -19q-3 -11 -3.5 -30.5t4 -51.5t27.5 -70t62 -72q-4 2 -11 5t-27 15t-36.5 26.5t-34.5 38.5t-28 51.5t-10.5 65.5t13.5 80q16 48 53.5 79.5t86 42.5t100 13t103.5 -6t88 -16.5t61 -16.5
q19 -6 121.5 -47.5t211.5 -84t249.5 -84t241.5 -53.5q234 -24 552.5 -13.5t575.5 45.5zM2944 819v67h-29v10h67v-10h-28v-67h-10zM2995 819v77h16l19 -54q7 -7 7 -10q0 1 1.5 5t1.5 8l22 51h16v-73h-9v63l-26 -63h-9l-26 63v-63z" />
    <glyph glyph-name="icon_weixinzhifu" unicode="&#xe623;" horiz-adv-x="3527" 
d="M415 247q-12 -6 -27 -2t-24 17l-3 8l-105 231q0 1 -1.5 4t-1.5 4q0 9 6 14.5t14.5 5.5t10.5 -3l123 -88q20 -16 51 -6l577 262q-76 93 -198 147.5t-265 54.5q-117 0 -222.5 -38.5t-182 -103t-122 -154t-45.5 -188.5q0 -106 52.5 -201t143.5 -163q17 -12 17 -31
q0 -8 -3 -11l-25 -97q-3 -6 -3 -14.5t5.5 -14t14.5 -5.5q1 0 5.5 1.5t5.5 1.5l125 74q13 8 32 8q11 0 17 -3q89 -25 188 -25q116 0 222 38t182.5 103t121.5 154.5t45 187.5q0 120 -65 225l-660 -390zM2091 469h301v-25h-301v25zM2091 384h301v-28h-301v28zM2099 117h285v165
h-285v-165zM2125 253h230v-114h-230v114zM1911 375l15 -25q9 14 27 44t27 44v-324h28v381q26 60 46 119l-26 15q-46 -148 -117 -254zM2244 558zM2244 558l23 11q-1 6 -28 60l-26 -15l26 -51q0 -1 1 -2.5t1 -2.5h-179v-29h364v29h-182zM1667 580h-26v-96h-54v136h-23v-136
h-56v96h-26v-122h185v122zM1490 401h163v-26h-163v26zM1678 253l-42 -37v105h-137v-39q5 -91 -43 -123l15 -25q58 50 54 136v26h85v-63q0 -23 -9 -40l17 -28q21 16 74 65zM1468 612l-23 14q-32 -72 -94 -134l14 -28q71 80 103 148zM1439 486q-34 -89 -99 -167l14 -26
q34 40 48 63v-242h26v284q20 33 34 74zM1772 629h-26q-26 -132 -79 -214l17 -28l11 23l12 22q13 -117 45 -182q-25 -47 -91 -108l14 -25q72 71 89 108q35 -63 85 -108l14 28q-58 54 -85 108q48 88 57 250h28v23h-119q25 71 28 103zM1812 501q-9 -143 -46 -217
q-27 79 -39 191q5 17 11 26h74zM3231 395q51 -78 88 -148l23 18q-52 89 -88 145zM2913 404l-17 11h-151v103h222v28h-222v94h-26v-97h-219v-28h219v-103h-150v-28q46 -101 139 -168q-95 -53 -225 -77l9 -25v-3q142 28 242 88q102 -64 241 -85v3l9 25q-141 24 -225 77
q106 74 154 185zM2600 387h273q-43 -89 -139 -154q-88 62 -134 154zM3172 634q-57 -150 -146 -239l12 -28v-3q38 38 68 85v-335h26v381q33 55 62 134zM3450 509v122h-25v-125h-236v-28h236v-322q0 -10 -4 -13.5t-13 -3.5q-4 0 -18.5 -1t-33.5 -1v-26q54 0 69 6q13 4 19 12.5
t6 26.5v325h77v28h-77z" />
    <glyph glyph-name="icon_cg_wx" unicode="&#xe625;" 
d="M908 695q-23 16 -63 37q-13 7 -35 19.5t-28 16.5l-126 73q-54 29 -63 35q-37 20 -81 20h-4q-42 -1 -78 -20q-10 -7 -31.5 -19t-31.5 -19q-22 -12 -64 -35t-64 -35q-10 -7 -31.5 -19t-31.5 -19q-53 -29 -63 -35q-28 -19 -49.5 -54.5t-21.5 -72.5v-366q0 -38 22 -74.5
t49 -52.5q22 -15 68 -40.5t57 -32.5q120 -68 128 -73q54 -29 63 -35q36 -22 78 -22h13q14 0 29 4t31.5 12t27.5 14t29 16.5t22 13.5q20 12 62 35.5t63 35.5q96 52 125 71q27 19 49 54.5t22 72.5v369q2 37 -21 72.5t-51 52.5zM924 222q0 -32 -20 -62.5t-43 -45.5
q-35 -23 -110 -65q-14 -8 -52 -29t-58 -33q-2 -1 -15.5 -9.5t-20 -12.5t-20.5 -11t-23 -10.5t-21.5 -6.5t-22.5 -3h-11q-37 1 -67 20q-30 16 -56 34q-6 3 -48 26t-64 36q-82 46 -110 65q-24 14 -43.5 46t-19.5 64v321q0 32 19 63t44 48q9 6 28.5 16t27.5 15t26.5 16.5
t27.5 16.5q82 44 112 63q8 5 26 15t27 16q34 20 70 20h5q36 1 71 -18q31 -19 54 -31q106 -61 112 -65q22 -14 56 -31q38 -22 54 -33q24 -15 44 -46.5t20 -61.5zM517 204l262 260q15 15 5 25l-20 20q-10 10 -25 -5l-256 -253l-151 151q-11 11 -21 0l-20 -20q-10 -10 0 -20
l183 -181q10 -10 20 0l21 20l1 1.5z" />
    <glyph glyph-name="icon_sb_wx" unicode="&#xe626;" 
d="M910 74q-12 -8 -125 -71q-120 -69 -125 -71q-1 -1 -17.5 -11t-23 -14t-22.5 -12.5t-26 -12t-24 -7t-25 -3.5h-13q-42 1 -78 22q-10 6 -63 35q-8 5 -128 73q-11 7 -57 32t-68 41q-28 18 -50.5 54t-22.5 73v366q0 37 22 72.5t50 54.5q9 6 63 35q10 7 31 19t31 19
q16 9 60 33t68 38q10 7 31.5 19t31.5 19q36 18 78 19h4q44 0 81 -20q9 -6 62 -35l128 -73q6 -4 28 -16.5t35 -19.5q32 -16 63 -37q28 -17 50.5 -52t22.5 -72v-370q0 -37 -22 -72t-50 -55zM924 548q0 31 -20.5 62t-44.5 46q-23 16 -53 34q-30 14 -57 31q-105 61 -111 64
q-23 12 -54 31q-36 19 -72 18h-4q-38 0 -70 -20q-9 -6 -27 -16t-26 -15q-37 -22 -112 -62q-51 -32 -54 -34q-9 -6 -28.5 -16t-27.5 -15q-24 -17 -43.5 -47.5t-19.5 -63.5v-320q0 -33 19.5 -64.5t43.5 -46.5q36 -23 110 -64q20 -12 57.5 -32.5t54.5 -29.5q21 -16 56 -34
q30 -19 67 -20h11q10 0 22 3t21.5 6.5t23.5 10.5t20 11t20 12.5t16 9.5q16 10 34 20l40.5 22.5t35.5 19.5q82 46 110 65q23 15 43 45.5t20 62.5zM548 384l160 -160q12 -12 0 -23l-11 -12q-12 -12 -24 0l-161 159l-160 -160q-5 -5 -12 -5t-12 5l-12 12q-5 5 -5 12t5 11
l160 161l-159 161q-12 11 0 23l11 12q12 12 24 0l160 -160l161 161q5 5 12 5t12 -5l11 -12q5 -5 5 -12t-5 -12z" />
    <glyph glyph-name="icon_zhifu_s" unicode="&#xe624;" 
d="M0 -128h1024v1024zM941 286l-266 -265q-11 -11 -25.5 -11t-25.5 11l-136 139q-9 11 -8 24t12 22q21 17 42 0l112 -112l246 246q11 11 26 11t26 -11q10 -11 9 -26.5t-12 -27.5v0z" />
  </font>
</defs>
</svg>
